<svg width="144" height="144" viewBox="0 0 144 144" fill="none" xmlns="http://www.w3.org/2000/svg">
<path d="M113.394 71.4603L109.828 69.2511C109.798 68.9034 109.764 68.5566 109.726 68.2114L112.797 65.3524C113.109 65.0616 113.249 64.6311 113.164 64.2152C113.082 63.7969 112.789 63.4526 112.39 63.3055L108.467 61.8435C108.368 61.504 108.265 61.1669 108.16 60.8282L110.605 57.4331C110.854 57.0879 110.905 56.6388 110.743 56.2473C110.58 55.8549 110.225 55.5739 109.809 55.5049L105.674 54.8323C105.513 54.5188 105.346 54.2102 105.177 53.9064L106.915 50.0889C107.093 49.7007 107.056 49.2523 106.819 48.8949C106.583 48.5408 106.182 48.3337 105.755 48.3499L101.556 48.4961C101.339 48.2248 101.118 47.956 100.893 47.692L101.859 43.6065C101.957 43.1914 101.834 42.7537 101.532 42.4531C101.232 42.1526 100.797 42.0283 100.379 42.1258L96.2926 43.0924C96.0278 42.8682 95.759 42.6464 95.4868 42.4296L95.6339 38.2303C95.6501 37.8055 95.443 37.4019 95.0888 37.1663C94.7338 36.9291 94.2846 36.8934 93.8947 37.0697L90.085 38.8078C89.7772 38.6389 89.4685 38.4716 89.159 38.3099L88.4848 34.1757C88.4166 33.7566 88.1355 33.4008 87.7424 33.2416C87.35 33.0784 86.8976 33.1312 86.5564 33.3797L83.161 35.8245C82.8263 35.7181 82.49 35.6158 82.1537 35.5183L80.6916 31.5952C80.5429 31.1956 80.1985 30.9024 79.7818 30.8195C79.3643 30.7375 78.937 30.8764 78.6446 31.1867L75.7853 34.2569C75.4401 34.2187 75.0924 34.1838 74.7455 34.1554L72.5361 30.5816C72.3127 30.2201 71.9171 30 71.4882 30C71.0593 30 70.6678 30.2201 70.4485 30.5816L68.239 34.1554C67.8914 34.1838 67.5437 34.2187 67.1993 34.2569L64.34 31.1867C64.05 30.8764 63.6195 30.7375 63.2027 30.8195C62.7844 30.9032 62.44 31.1956 62.293 31.5952L60.8308 35.5183C60.4913 35.6158 60.155 35.7189 59.8236 35.8245L56.4282 33.3797C56.0829 33.1303 55.6329 33.0775 55.2422 33.2416C54.8499 33.4041 54.568 33.7598 54.4998 34.1757L53.8255 38.3099C53.5136 38.4716 53.2049 38.6381 52.8995 38.8078L49.0898 37.0697C48.7024 36.8926 48.2532 36.9291 47.8957 37.1663C47.5416 37.4019 47.3344 37.8055 47.3507 38.2303L47.4969 42.4296C47.2256 42.6464 46.9567 42.8682 46.6911 43.0924L42.6052 42.1258C42.1901 42.0291 41.7523 42.1526 41.4518 42.4531C41.1496 42.7545 41.0269 43.189 41.1244 43.6065L42.0829 47.692C41.8595 47.9568 41.6386 48.2248 41.4217 48.4961L37.2221 48.3499C36.7989 48.3377 36.3936 48.5408 36.158 48.8949C35.9208 49.2474 35.8851 49.699 36.0613 50.0889L37.7997 53.9064C37.6307 54.2126 37.4634 54.5213 37.3017 54.8323L33.1671 55.5049C32.7471 55.5731 32.393 55.8541 32.233 56.2473C32.0705 56.6412 32.1233 57.092 32.371 57.4331L34.8161 60.8282C34.7097 61.1637 34.6065 61.5008 34.509 61.8435L30.5856 63.3055C30.1876 63.4542 29.8943 63.7986 29.8115 64.2152C29.7286 64.6327 29.8675 65.06 30.1786 65.3524L33.2491 68.2114C33.211 68.5566 33.1769 68.9043 33.1476 69.2511L29.5816 71.4603C29.2201 71.6837 29 72.0785 29 72.5081C29 72.9378 29.2201 73.3285 29.5816 73.5478L33.1476 75.757C33.1769 76.1047 33.211 76.4515 33.2491 76.7967L30.1786 79.6558C29.8675 79.9457 29.7286 80.3762 29.8115 80.7929C29.8943 81.2112 30.1876 81.5548 30.5856 81.7026L34.509 83.1646C34.6065 83.5041 34.7097 83.8412 34.8161 84.1799L32.371 87.575C32.1225 87.921 32.0697 88.3702 32.233 88.7609C32.3962 89.1548 32.7512 89.4358 33.1752 89.5033L37.3098 90.1758C37.4715 90.4893 37.6372 90.7979 37.8078 91.1017L36.0695 94.9111C35.8924 95.2985 35.9289 95.7477 36.1661 96.1051C36.4033 96.46 36.807 96.6671 37.2302 96.6501L41.4217 96.5031C41.6402 96.776 41.8604 97.0432 42.0845 97.3088L41.126 101.394C41.0286 101.809 41.1512 102.239 41.4534 102.54C41.7531 102.843 42.1893 102.964 42.6069 102.866L46.6927 101.908C46.9584 102.133 47.2272 102.353 47.4985 102.569L47.3523 106.768C47.3361 107.193 47.5432 107.597 47.8974 107.832C48.2499 108.068 48.7016 108.104 49.0915 107.927L52.9011 106.189C53.2082 106.359 53.5169 106.525 53.8272 106.687L54.5014 110.821C54.5696 111.242 54.8507 111.598 55.2438 111.763C55.6362 111.927 56.0886 111.874 56.4298 111.626L59.8252 109.181C60.1607 109.288 60.4978 109.392 60.8406 109.489L62.3027 113.412C62.4514 113.81 62.7958 114.105 63.2125 114.186C63.63 114.271 64.0573 114.131 64.3497 113.819L67.209 110.749C67.5542 110.789 67.9019 110.822 68.2488 110.853L70.4582 114.418C70.6808 114.778 71.0764 115 71.498 115C71.9195 115 72.3184 114.779 72.5458 114.418L74.7553 110.853C75.103 110.822 75.4498 110.789 75.795 110.749L78.6543 113.819C78.9443 114.131 79.3749 114.271 79.7916 114.186C80.2099 114.104 80.5543 113.81 80.7013 113.412L82.1635 109.489C82.503 109.392 82.8401 109.288 83.1789 109.181L86.5743 111.626C86.9195 111.874 87.3695 111.927 87.7602 111.763C88.1534 111.602 88.4344 111.245 88.5027 110.821L89.1769 106.687C89.4888 106.525 89.7975 106.357 90.1029 106.189L93.9126 107.927C94.3001 108.104 94.7493 108.068 95.1067 107.832C95.4608 107.595 95.6672 107.193 95.6517 106.768L95.5055 102.569C95.7768 102.352 96.0457 102.133 96.3105 101.908L100.396 102.866C100.811 102.964 101.249 102.843 101.55 102.54C101.852 102.238 101.975 101.805 101.877 101.394L100.919 97.3088C101.143 97.0432 101.364 96.776 101.58 96.5031L105.78 96.6501C106.203 96.6671 106.608 96.46 106.844 96.1051C107.081 95.7509 107.117 95.3001 106.939 94.9111L105.201 91.1017C105.371 90.7939 105.537 90.4852 105.698 90.1758L109.833 89.5033C110.254 89.4358 110.608 89.1548 110.767 88.7609C110.929 88.3686 110.878 87.9162 110.629 87.575L108.184 84.1799C108.29 83.8444 108.393 83.5074 108.491 83.1646L112.414 81.7026C112.813 81.5531 113.107 81.2096 113.189 80.7929C113.273 80.3754 113.133 79.9482 112.821 79.6558L109.751 76.7967C109.788 76.4515 109.822 76.1039 109.852 75.757L113.418 73.5478C113.78 73.3252 114 72.9297 114 72.5081C114 72.0866 113.781 71.6878 113.419 71.4603H113.394ZM89.5124 101.107C88.1477 100.813 87.2867 99.4661 87.5791 98.1015C87.8707 96.737 89.2118 95.8679 90.5765 96.1603C91.9412 96.4519 92.8103 97.801 92.5179 99.1656C92.2255 100.53 90.8852 101.399 89.5205 101.107H89.5124ZM88.302 92.9032C87.0592 92.6368 85.8326 93.4279 85.5727 94.6739L84.3055 100.587C80.3984 102.358 76.02 103.349 71.4712 103.349C66.7923 103.349 62.3734 102.317 58.3931 100.465L57.1259 94.5521C56.8595 93.3094 55.6394 92.5134 54.3966 92.7814L49.1735 93.9023C48.2069 92.9033 47.3052 91.8392 46.4767 90.7184H71.9017C72.1892 90.7184 72.3809 90.6664 72.3809 90.4048V81.3891C72.3809 81.1275 72.1892 81.0755 71.9017 81.0755H64.4691V75.3818H72.5028C73.2363 75.3818 76.4262 75.5914 77.4416 79.6704C77.7608 80.9212 78.4651 84.9986 78.9443 86.3063C79.422 87.7683 81.365 90.6924 83.4364 90.6924H96.1083C96.252 90.6924 96.4056 90.6761 96.5672 90.6469C95.6899 91.8408 94.7233 92.9699 93.6917 94.0258L88.3467 92.8805L88.302 92.9032ZM53.1294 100.985C51.7647 101.279 50.4244 100.41 50.132 99.0437C49.8404 97.6792 50.7071 96.3309 52.0734 96.0385C53.4381 95.7469 54.7784 96.616 55.0708 97.9797C55.3624 99.3442 54.4949 100.693 53.1294 100.985ZM43.463 61.9166C44.0284 63.1918 43.4533 64.6863 42.1796 65.2549C40.9043 65.821 39.4178 65.2451 38.8492 63.9716C38.2805 62.698 38.8589 61.2019 40.1326 60.6333C41.4079 60.068 42.8944 60.643 43.463 61.9166ZM40.4981 68.9343L45.9405 66.5139C47.1021 65.9981 47.6301 64.6376 47.1103 63.4761L45.9893 60.942H50.3919V80.7604H41.5379C40.767 78.0475 40.3519 75.1885 40.3519 72.232C40.3519 71.103 40.4128 69.9902 40.5298 68.8937L40.4981 68.9343ZM64.3798 67.0093V61.1612H74.8585C75.4003 61.1612 78.6844 61.7875 78.6844 64.2396C78.6844 66.2783 76.1663 67.0093 74.0949 67.0093H64.3473H64.3798ZM102.477 72.2726C102.477 73.0491 102.448 73.8158 102.391 74.5793H99.1991C98.8798 74.5793 98.7515 74.7889 98.7515 75.1016V76.5636C98.7515 80.0075 96.8101 80.7628 95.1042 80.9496C93.4796 81.1324 91.6845 80.2706 91.4651 79.2764C90.5066 73.8914 88.9145 72.7461 86.3964 70.748C89.5237 68.7662 92.7729 65.834 92.7729 61.8947C92.7729 57.663 89.873 54.9989 87.8991 53.6912C85.1211 51.8636 82.0506 51.4981 81.222 51.4981H48.2426C52.7184 46.511 58.8025 42.9697 65.6258 41.6701L69.5168 45.7475C70.3941 46.6654 71.8481 46.706 72.7741 45.8223L77.128 41.6636C86.2258 43.3612 93.9427 49.0306 98.4103 56.8524L95.4292 63.5776C94.915 64.7391 95.4397 66.1037 96.5989 66.6154L102.334 69.1658C102.433 70.1811 102.485 71.2126 102.485 72.2523L102.477 72.2726ZM69.4973 38.2401C70.5045 37.2735 72.1048 37.3141 73.0633 38.3221C74.0218 39.3293 73.9893 40.9294 72.9796 41.8959C71.9724 42.8625 70.3721 42.8219 69.4136 41.8131C68.4551 40.8059 68.4876 39.2058 69.4973 38.2393V38.2401ZM99.065 62.0385C99.6296 60.7633 101.12 60.1866 102.395 60.7551C103.671 61.3204 104.248 62.8182 103.679 64.0934C103.114 65.3686 101.624 65.9453 100.348 65.3767C99.0732 64.8114 98.4964 63.3137 99.065 62.0385Z" fill="black"/>
<path d="M123 45.8874V136H21V8H83.9722L123 45.8874ZM123 24.6983L105.66 8H123V24.6983Z" stroke="black" stroke-width="10"/>
</svg>
